STARTFONT 2.1
FONT -Monotype-Bookman Old Style-Bold-I-Normal--36-360-75-75-P-220-iso8859-4
SIZE 36 75 75
FONTBOUNDINGBOX 60 46 -7 -10

STARTPROPERTIES 24
FOUNDRY "Monotype"
FAMILY_NAME "Bookman Old Style"
WEIGHT_NAME "Bold"
SLANT "I"
SETWIDTH_NAME "Normal"
ADD_STYLE_NAME ""
PIXEL_SIZE 36
POINT_SIZE 360
RESOLUTION_X 75
RESOLUTION_Y 75
SPACING "P"
AVERAGE_WIDTH 220
CHARSET_REGISTRY "iso8859"
CHARSET_ENCODING "4"
FACE_NAME "Bookman Old Style Bold Italic ISO Latin4"
_DEC_DEVICE_FONTNAMES "PS=bookmanoldstyle-bit-lat4"
COPYRIGHT "Copyright (c) 1993 Monotype Typography Ltd."
CAP_HEIGHT 31
X_HEIGHT 23
WEIGHT 10
QUAD_WIDTH 26
DEFAULT_CHAR 160
FONT_DESCENT 10
FONT_ASCENT 36
ENDPROPERTIES

CHARS 191

STARTCHAR space
ENCODING 32
SWIDTH 340 0
DWIDTH 13 0
BBX 0 0 0 0
BITMAP
ENDCHAR

STARTCHAR exclam
ENCODING 33
SWIDTH 320 0
DWIDTH 12 0
BBX 11 26 3 0
BITMAP
01C0
07E0
07E0
0FE0
0FE0
0FE0
0FC0
0FC0
0FC0
0F80
0F80
0F00
0F00
1F00
1E00
1E00
1E00
1C00
0000
1800
7C00
FE00
FE00
FE00
7C00
3800
ENDCHAR

STARTCHAR quotedbl
ENCODING 34
SWIDTH 380 0
DWIDTH 14 0
BBX 12 10 6 16
BITMAP
78F0
78F0
F9F0
F1E0
F1E0
F1C0
E1C0
E1C0
C180
C180
ENDCHAR

STARTCHAR numbersign
ENCODING 35
SWIDTH 600 0
DWIDTH 23 0
BBX 19 26 5 0
BITMAP
01C700
03C700
03C700
038700
038F00
038F00
038F00
078E00
7FFFE0
7FFFE0
7FFFE0
071E00
071E00
071E00
0F1C00
FFFFC0
FFFFC0
FFFFC0
0E3C00
0E3C00
0E3C00
1E3800
1E3800
1C3800
1C3800
1C7800
ENDCHAR

STARTCHAR dollar
ENCODING 36
SWIDTH 680 0
DWIDTH 26 0
BBX 22 35 5 -5
BITMAP
000380
000700
000700
000700
00FF00
03FFB8
0FFFF8
0FFFF8
1F8FF8
1F1EF8
3F1C78
3F1C7C
3F9C3C
3FFC38
1FFC00
0FFF00
07FFC0
03FFE0
00FFF0
F07FF0
F077F8
F871F8
F871F8
FCE1F8
FEE1F0
FFE7F0
FFFFE0
F7FFC0
E7FF80
E1FE00
01C000
01C000
03C000
038000
038000
ENDCHAR

STARTCHAR percent
ENCODING 37
SWIDTH 880 0
DWIDTH 33 0
BBX 30 26 5 0
BITMAP
07F000F0
1FF800E0
3E7C01C0
3C3C0380
783C0700
783C0E00
F83C1C00
F07C3800
F07C3800
F0787000
F0F0E000
79F1C000
7FE38000
1F8707F0
000E1FF8
000E3E7C
001C7C3C
0038783C
0070F83C
00E0F03C
01C0F07C
0380F078
0380F0F8
0700F9F0
0E007FE0
3C001F80
ENDCHAR

STARTCHAR ampersand
ENCODING 38
SWIDTH 980 0
DWIDTH 37 0
BBX 35 26 4 0
BITMAP
001FE00000
007FF80000
00FFFC0000
00FCFC0000
01F87C0000
01F07C0000
01F07C0000
01F0F80000
00FFF80000
007FF1FF80
03FF03FF80
0FFF83FF00
1FCFC3FF00
3F87E0F800
7E07F0F000
FE03F1E000
FC03FBE3E0
FC01FFC3E0
FC01FF83E0
FE00FF03E0
FE007F03E0
7F81FF87C0
7FFFFFFFC0
3FFFEFFF80
0FFF8FFE00
03FC01F800
ENDCHAR

STARTCHAR quoteright
ENCODING 39
SWIDTH 320 0
DWIDTH 12 0
BBX 10 13 5 14
BITMAP
1F00
3F80
3FC0
3FC0
3FC0
1BC0
0780
0780
0F00
3E00
FC00
F800
6000
ENDCHAR

STARTCHAR parenleft
ENCODING 40
SWIDTH 260 0
DWIDTH 10 0
BBX 13 36 2 -9
BITMAP
0020
00F0
00F8
01F0
03E0
07E0
07C0
0FC0
0F80
1F80
1F00
1F00
3F00
3E00
3E00
7E00
7E00
7E00
7C00
7C00
FC00
FC00
FC00
F800
F800
F800
F800
F800
F800
F800
7800
7800
7C00
3C00
3C00
1000
ENDCHAR

STARTCHAR parenright
ENCODING 41
SWIDTH 260 0
DWIDTH 10 0
BBX 13 36 -1 -9
BITMAP
0040
01E0
01F0
00F0
00F0
00F8
00F8
00F8
00F8
00F8
00F8
00F8
00F8
00F8
01F8
01F8
01F0
01F0
01F0
03F0
03F0
03E0
03E0
07E0
07C0
07C0
0FC0
0F80
1F80
1F00
3F00
3E00
FC00
7800
3800
1000
ENDCHAR

STARTCHAR asterisk
ENCODING 42
SWIDTH 460 0
DWIDTH 17 0
BBX 15 15 5 12
BITMAP
0180
03C0
03C0
63C0
F380
F91C
7FBE
07FC
07BC
1F80
7DC0
79E0
79E0
00E0
0040
ENDCHAR

STARTCHAR plus
ENCODING 43
SWIDTH 600 0
DWIDTH 23 0
BBX 18 19 5 3
BITMAP
01E000
01E000
01E000
01E000
01E000
01E000
01E000
01E000
FFFFC0
FFFFC0
FFFFC0
01E000
01E000
01E000
01E000
01E000
01E000
01E000
01E000
ENDCHAR

STARTCHAR comma
ENCODING 44
SWIDTH 340 0
DWIDTH 13 0
BBX 10 13 2 -7
BITMAP
1F00
3F80
3F80
3FC0
3FC0
1F80
0780
0780
0F00
3E00
FC00
F800
6000
ENDCHAR

STARTCHAR minus
ENCODING 45
SWIDTH 600 0
DWIDTH 23 0
BBX 19 3 5 11
BITMAP
FFFFE0
FFFFE0
FFFFE0
ENDCHAR

STARTCHAR period
ENCODING 46
SWIDTH 340 0
DWIDTH 13 0
BBX 7 7 4 0
BITMAP
3C
7E
FE
FE
FE
FC
78
ENDCHAR

STARTCHAR slash
ENCODING 47
SWIDTH 360 0
DWIDTH 14 0
BBX 22 33 -2 -6
BITMAP
00003C
00007C
000078
0000F8
0001F0
0001F0
0003E0
0003C0
0007C0
000780
000F80
000F00
001F00
001E00
003E00
003C00
007C00
00F800
00F800
01F000
01E000
03E000
03C000
07C000
078000
0F8000
0F0000
1F0000
3E0000
3E0000
7C0000
7C0000
F80000
ENDCHAR

STARTCHAR zero
ENCODING 48
SWIDTH 680 0
DWIDTH 26 0
BBX 23 26 4 0
BITMAP
003F80
00FFE0
03FFF8
07FFFC
0FE0FC
1FC0FE
1F807E
3F807E
3F007E
7F007E
7E007E
7E007E
FE00FE
FE00FE
FC00FC
FC00FC
FC01FC
FC01F8
FC03F8
FC03F0
7E07F0
7F0FE0
3FFFC0
1FFF80
0FFE00
03F000
ENDCHAR

STARTCHAR one
ENCODING 49
SWIDTH 680 0
DWIDTH 26 0
BBX 17 26 6 0
BITMAP
000380
003F80
07FF00
07FF00
07FF00
0FFF00
003E00
007E00
007E00
007E00
007C00
00FC00
00FC00
00FC00
00FC00
01F800
01F800
01F800
01F800
03F000
03F000
03F000
FFFF80
FFFF80
FFFF00
FFFF00
ENDCHAR

STARTCHAR two
ENCODING 50
SWIDTH 680 0
DWIDTH 26 0
BBX 25 27 2 -1
BITMAP
003FF000
00FFFC00
01FFFE00
03FFFF00
07E1FF00
0F807F80
0F003F80
0F003F80
0E003F80
0E003F00
1E007F00
00007E00
0001FC00
0003F800
0007F000
001FE000
003F8000
007F0000
01FC1F00
03F01E00
0FC03E00
1FFFFC00
7FFFFC00
7FFFF800
FFFFF800
FFFFF800
00003000
ENDCHAR

STARTCHAR three
ENCODING 51
SWIDTH 680 0
DWIDTH 26 0
BBX 22 26 4 0
BITMAP
00FFC0
03FFF0
07FFF8
0FFFFC
0F83FC
1F01FC
1E00FC
1E00FC
0001FC
0003F8
007FF0
007F40
007F80
00FFE0
0007F0
0003F8
7001F8
F801F8
FC01F8
FC03F8
FE03F8
FF0FF0
7FFFE0
3FFFC0
0FFF00
03F800
ENDCHAR

STARTCHAR four
ENCODING 52
SWIDTH 680 0
DWIDTH 26 0
BBX 24 26 3 0
BITMAP
0000FC
0001FC
0003FC
000FFC
001FF8
003FF8
007EF8
00FDF8
03F1F8
07E3F0
0FC3F0
1F83F0
7F03F0
7C07E0
7FFFFF
7FFFFF
FFFFFF
FFFFFE
000FC0
000FC0
000FC0
000FC0
001F80
001F80
001F80
001F80
ENDCHAR

STARTCHAR five
ENCODING 53
SWIDTH 680 0
DWIDTH 26 0
BBX 24 27 4 0
BITMAP
000007
01FFFF
03FFFF
03FFFE
03FFFE
03FFFE
07FFFE
078000
078000
0F8000
0FFF00
0FFFE0
0FFFF0
1FFFF8
100FFC
0003FC
0001FC
1000FC
7800FC
FC00FC
FC00F8
FE01F8
7F07F0
3FFFE0
1FFFC0
0FFF00
01FC00
ENDCHAR

STARTCHAR six
ENCODING 54
SWIDTH 680 0
DWIDTH 26 0
BBX 22 26 5 0
BITMAP
0003FC
003FFC
00FFFC
01FFF8
07FC00
0FF000
1FC000
1F8000
3F8000
3F7F00
7FFFC0
7FFFE0
FFFFF0
FF87F8
FF03F8
FE01F8
FC01F8
FC01F8
FC01F8
FC03F8
7E07F0
7F0FE0
3FFFE0
1FFFC0
0FFF00
03FC00
ENDCHAR

STARTCHAR seven
ENCODING 55
SWIDTH 680 0
DWIDTH 26 0
BBX 24 27 6 0
BITMAP
0E0000
1FFFFF
1FFFFF
1FFFFF
3FFFFF
3FFFFE
7FFEFC
7801F8
F003F0
F007E0
200FC0
001F80
003F00
003E00
007E00
00FC00
01FC00
01F800
03F800
03F000
07F000
07E000
0FE000
0FC000
1FC000
1FC000
1FC000
ENDCHAR

STARTCHAR eight
ENCODING 56
SWIDTH 680 0
DWIDTH 26 0
BBX 23 26 4 0
BITMAP
003F80
01FFF0
07FFF8
0FFFFC
0FC0FE
1F807E
1F807E
1F807C
1FE0FC
0FF1F8
0FFFE0
07FF80
01FFC0
03FFF0
0FFFF8
1F8FF8
3E03FC
7C01FC
FC00FC
FC00FC
FC01F8
7F03F8
7FFFF0
3FFFE0
0FFF80
01FC00
ENDCHAR

STARTCHAR nine
ENCODING 57
SWIDTH 680 0
DWIDTH 26 0
BBX 22 26 5 0
BITMAP
00FF00
03FFC0
0FFFE0
1FFFF0
1FC1F8
3F80F8
7F00FC
7E00FC
7E00FC
7E00FC
7E01FC
7F03FC
7F87FC
3FFFF8
1FFFF8
0FFDF8
03FBF0
0007F0
0007E0
000FE0
003FC0
01FF80
7FFE00
FFFC00
FFE000
FE0000
ENDCHAR

STARTCHAR colon
ENCODING 58
SWIDTH 340 0
DWIDTH 13 0
BBX 10 19 4 0
BITMAP
0780
0FC0
1FC0
1FC0
1FC0
0F80
0700
0000
0000
0000
0000
0000
3800
7E00
FE00
FE00
FE00
FC00
7800
ENDCHAR

STARTCHAR semicolon
ENCODING 59
SWIDTH 340 0
DWIDTH 13 0
BBX 12 26 1 -7
BITMAP
01E0
03F0
07F0
07F0
07F0
07E0
03C0
0000
0000
0000
0000
0000
0000
0F00
1F80
3FC0
3FC0
1FC0
1FC0
03C0
0780
0F80
1F00
FE00
7800
6000
ENDCHAR

STARTCHAR less
ENCODING 60
SWIDTH 620 0
DWIDTH 24 0
BBX 18 20 6 3
BITMAP
000040
0003C0
000FC0
003FC0
00FF00
03FC00
0FF000
3FC000
FF0000
F00000
F80000
FE0000
3F8000
0FE000
03FC00
00FF00
003FC0
000FC0
0003C0
0000C0
ENDCHAR

STARTCHAR equal
ENCODING 61
SWIDTH 600 0
DWIDTH 23 0
BBX 19 11 5 7
BITMAP
FFFFE0
FFFFE0
FFFFE0
FFFFE0
000000
000000
000000
FFFFE0
FFFFE0
FFFFE0
FFFFE0
ENDCHAR

STARTCHAR greater
ENCODING 62
SWIDTH 620 0
DWIDTH 24 0
BBX 18 20 6 3
BITMAP
800000
E00000
F80000
FE0000
3FC000
0FF000
03FC00
00FF00
003FC0
0007C0
000FC0
003FC0
00FF00
03FC00
0FF000
3FC000
FF0000
F80000
E00000
800000
ENDCHAR

STARTCHAR question
ENCODING 63
SWIDTH 620 0
DWIDTH 24 0
BBX 20 26 6 0
BITMAP
07F800
1FFF00
7FFF80
FFFFC0
FE0FE0
FC07E0
F803F0
7003F0
0003F0
0003F0
000FE0
0FFFE0
0FFFC0
0FFF80
1FFF00
1FF000
1E0000
1E0000
000000
380000
7C0000
FE0000
FE0000
FE0000
7C0000
380000
ENDCHAR

STARTCHAR at
ENCODING 64
SWIDTH 780 0
DWIDTH 30 0
BBX 33 34 2 -8
BITMAP
0007FC0000
003C078000
00E000C000
0180002000
0700001000
0E00000800
0C00000C00
1800000400
3803CF0400
30076F0200
700E2F0200
601C3E0200
603C3E0200
E03C3E0200
C0783E0200
C0783C0200
C0F87C0200
C0F07C0400
C0F0F80400
C1F0F80C00
C1F1780800
C1F3781000
41FEF03000
61FCF04180
60F8F98100
30F07E0200
3000000600
1800000400
0800000800
0C00001000
0300006000
01C001C000
00700F0000
000FF00000
ENDCHAR

STARTCHAR A
ENCODING 65
SWIDTH 720 0
DWIDTH 27 0
BBX 28 26 0 0
BITMAP
0000FE00
0000FE00
0001FE00
0003FE00
0003FE00
0007FE00
0007BF00
000FBF00
001F3F00
001F3F00
003E3F00
007C3F00
007C3F80
00F81F80
00FFFF80
01FFFF80
03FFFF80
03E01F80
07C01FC0
0FC01FC0
0F800FC0
1F801FC0
7FF0FFF0
7FE0FFF0
FFE0FFF0
FFE0FFE0
ENDCHAR

STARTCHAR B
ENCODING 66
SWIDTH 720 0
DWIDTH 27 0
BBX 28 26 1 0
BITMAP
07FFFE00
07FFFFC0
07FFFFE0
01FFFFE0
00FC0FF0
01FC07F0
01F807F0
01F807F0
01F807E0
03F81FC0
03FFFF80
03FFFC00
03FFFE00
03FFFF00
07F01F80
07F00FC0
07F00FE0
07E00FE0
0FE00FE0
0FE01FE0
0FE01FC0
0FE07FC0
FFFFFF80
FFFFFF00
FFFFFC00
FFFFE000
ENDCHAR

STARTCHAR C
ENCODING 67
SWIDTH 700 0
DWIDTH 27 0
BBX 25 26 4 0
BITMAP
001FC380
00FFF780
01FFFF80
07FFFF80
0FF83F80
1FE00F80
3FC00F80
3F800780
7F800780
7F000780
7F000000
FE000000
FE000000
FE000000
FE000000
FE000000
FE000000
FE000400
7F000E00
7F801F00
3F803E00
3FE0FC00
1FFFF800
0FFFF000
03FFC000
00FF0000
ENDCHAR

STARTCHAR D
ENCODING 68
SWIDTH 760 0
DWIDTH 29 0
BBX 30 26 1 0
BITMAP
03FFFE00
03FFFF80
07FFFFE0
07FFFFF0
00FC0FF0
00FC03F8
00FC03F8
01FC01FC
01F801FC
01F801FC
01F801FC
03F801FC
03F001FC
03F001FC
03F003FC
07F003F8
07F003F8
07E007F0
07E007F0
07E00FE0
0FE03FE0
0FE0FFC0
7FFFFF80
7FFFFE00
FFFFF800
FFFFC000
ENDCHAR

STARTCHAR E
ENCODING 69
SWIDTH 720 0
DWIDTH 27 0
BBX 29 26 1 0
BITMAP
03FFFFE0
03FFFFE0
07FFFFF0
07FFFFF0
00FC03F0
00FC00F8
00FC0078
00FC3C78
01FC3820
01F87800
01F8F800
01FFF800
03FFF000
03FFF000
03F1F000
03F0F040
03F0F070
07F0E0F0
07E001F0
07E003E0
07E007E0
0FE03FC0
7FFFFFC0
7FFFFF80
7FFFFF80
FFFFFF00
ENDCHAR

STARTCHAR F
ENCODING 70
SWIDTH 660 0
DWIDTH 25 0
BBX 28 26 1 0
BITMAP
03FFFFC0
03FFFFC0
07FFFFE0
01FFFFE0
00FE07E0
00FC01E0
00FC00F0
00FC38F0
01FC7840
01F87800
01F8F000
01FFF000
03FFF000
03FFF000
03FFF000
03F1E000
03F1E000
07F1E000
07E1E000
07E00000
07E00000
0FE00000
7FFC0000
7FF80000
7FF80000
FFF80000
ENDCHAR

STARTCHAR G
ENCODING 71
SWIDTH 760 0
DWIDTH 29 0
BBX 28 26 4 0
BITMAP
001FC380
00FFFB80
01FFFF80
07FFFF80
0FF81F80
1FE00F80
3FC00780
3F8007C0
7F8003C0
7F000200
7F000000
FE000000
FE01FFF0
FE01FFF0
FE01FFF0
FE01FFE0
FE003F00
FE003F00
7F003F00
7F007E00
3F807E00
3FE1FE00
1FFFFE00
0FFFFE00
03FFBC00
00FE3C00
ENDCHAR

STARTCHAR H
ENCODING 72
SWIDTH 800 0
DWIDTH 30 0
BBX 34 26 1 0
BITMAP
03FFE7FFC0
03FFC7FFC0
07FFC7FFC0
07FFC7FF80
00FE01FC00
00FC01FC00
00FC01FC00
00FC01F800
01FC01F800
01F801F800
01F803F800
01FFFFF000
03FFFFF000
03FFFFF000
03FFFFF000
03F007F000
07F007E000
07F007E000
07E007E000
07E00FE000
07E00FC000
0FE00FC000
7FFCFFF800
7FF8FFF800
FFF8FFF800
FFF8FFF000
ENDCHAR

STARTCHAR I
ENCODING 73
SWIDTH 380 0
DWIDTH 14 0
BBX 18 26 1 0
BITMAP
03FFC0
07FFC0
07FFC0
07FFC0
00FC00
00FC00
01FC00
01FC00
01F800
01F800
01F800
03F800
03F000
03F000
03F000
07F000
07F000
07E000
07E000
07E000
0FC000
0FE000
7FF800
FFF800
FFF800
FFF800
ENDCHAR

STARTCHAR J
ENCODING 74
SWIDTH 620 0
DWIDTH 24 0
BBX 27 26 2 0
BITMAP
0003FFE0
0003FFE0
0003FFE0
0003FFC0
00007E00
00007E00
0000FE00
0000FC00
0000FC00
0000FC00
0001FC00
0001F800
0001F800
0001F800
3803F800
7C03F000
FC03F000
FC03F000
FC07F000
FC07E000
FE0FE000
FE1FC000
7FFFC000
3FFF8000
1FFE0000
07F80000
ENDCHAR

STARTCHAR K
ENCODING 75
SWIDTH 780 0
DWIDTH 30 0
BBX 33 26 1 0
BITMAP
03FFE7FF80
03FFCFFF80
07FFCFFF00
07FFCFFF00
00FE03F800
00FC07F000
00FC0FC000
01FC1F8000
01FC7F0000
01F8FC0000
01F9F80000
01FBF80000
03FFFC0000
03FFFC0000
03FF7E0000
03FCFE0000
07F87F0000
07F03F0000
07E03F8000
07E01FC000
07E01FC000
0FE00FE000
7FFC7FF800
7FF87FF800
FFF8FFF800
FFF8FFF800
ENDCHAR

STARTCHAR L
ENCODING 76
SWIDTH 640 0
DWIDTH 24 0
BBX 28 26 0 0
BITMAP
03FFE000
03FFC000
03FFC000
07FFC000
00FE0000
00FC0000
00FC0000
00FC0000
01FC0000
01F80000
01F80000
01F80000
03F80000
03F00000
03F00000
03F00080
07F000F0
07F001E0
07E003E0
07E007C0
07E00FC0
0FE07F80
7FFFFF80
7FFFFF00
7FFFFF00
FFFFFE00
ENDCHAR

STARTCHAR M
ENCODING 77
SWIDTH 860 0
DWIDTH 33 0
BBX 37 26 1 0
BITMAP
03FFC07FF8
03FFC0FFF0
07FFC0FFF0
07F7C1FFF0
00F7C1EF80
00F7C3DF80
01F7C3DF00
01EFC7BF00
01E7C7BF00
01E7CF3F00
03E7CF7E00
03E7DE7E00
03C7DE7E00
03C7DC7E00
03C7DCFC00
07C7F8FC00
0787F8FC00
0787F0FC00
0787F0FC00
0F87E1F800
0F07E1F800
0F87C1F800
7FE7CFFF00
7FE78FFE00
FFE79FFE00
FFC71FFE00
ENDCHAR

STARTCHAR N
ENCODING 78
SWIDTH 740 0
DWIDTH 28 0
BBX 32 26 1 0
BITMAP
03FF03FF
03FF87FF
07FF87FF
07FF87FE
00FF80F0
00FFC1F0
00FFC1F0
00F7C1E0
01F7E1E0
01E7E1E0
01E7E3E0
01E3F3C0
03E3F3C0
03E3F3C0
03C3F7C0
03C1FBC0
07C1FF80
07C1FF80
0780FF80
0780FF80
0780FF00
0F807F00
7FF07F00
7FE07F00
FFE07F00
FFE03E00
ENDCHAR

STARTCHAR O
ENCODING 79
SWIDTH 760 0
DWIDTH 29 0
BBX 27 26 4 0
BITMAP
001FE000
00FFF800
01FFFE00
07FFFF00
0FF07F80
1FE01F80
3FC01FC0
3F800FC0
7F800FE0
7F000FE0
7F000FE0
FF000FE0
FE000FE0
FE000FE0
FE001FE0
FE001FC0
FE001FC0
FE003FC0
7E003F80
7F007F80
3F80FF00
3FC1FE00
1FFFFC00
0FFFF800
03FFE000
007F0000
ENDCHAR

STARTCHAR P
ENCODING 80
SWIDTH 640 0
DWIDTH 24 0
BBX 27 26 1 0
BITMAP
03FFFC00
03FFFF00
03FFFF80
03FFFFC0
00FE1FE0
00FE0FE0
00FC0FE0
00FC0FE0
00FC0FE0
01FC0FC0
01F81FC0
01F87F80
01FFFF80
03FFFF00
03FFFC00
03FFE000
03F00000
03F00000
07F00000
07E00000
07E00000
0FE00000
7FFC0000
7FFC0000
7FF80000
FFF80000
ENDCHAR

STARTCHAR Q
ENCODING 81
SWIDTH 760 0
DWIDTH 29 0
BBX 27 34 4 -8
BITMAP
001FE000
00FFF800
01FFFE00
07FFFF00
0FF07F80
1FE03F80
1FC01FC0
3F800FC0
7F800FE0
7F000FE0
7F000FE0
FF000FE0
FE000FE0
FE000FE0
FE000FE0
FE001FE0
FE001FC0
FE001FC0
FE003F80
7F003F80
7F007F00
3F80FF00
1FC3FE00
1FFFFC00
07FFF000
03FFC000
01FE0000
01F80000
01F80000
01FE1C00
00FFFC00
00FFFE00
007FF800
001FE000
ENDCHAR

STARTCHAR R
ENCODING 82
SWIDTH 740 0
DWIDTH 28 0
BBX 28 26 2 0
BITMAP
07FFFE00
07FFFF80
07FFFFE0
07FFFFE0
01FC0FF0
01FC07F0
01F807F0
01F807F0
01F807F0
03F80FE0
03F81FE0
03FFFFC0
03FFFF80
03FFFE00
07FFF000
07E3F000
07E3F800
07E1FC00
0FE1FC00
0FC0FE00
0FC07F00
1FC07F00
FFF83FE0
FFF83FE0
FFF01FE0
FFF01FE0
ENDCHAR

STARTCHAR S
ENCODING 83
SWIDTH 700 0
DWIDTH 27 0
BBX 24 26 4 0
BITMAP
00FF0E
03FFCE
07FFFE
0FFFFF
1F81FF
3F007F
3F003F
3F001F
3F800F
3FF00C
1FFE00
0FFFC0
07FFF0
03FFF8
007FFC
F00FFE
F001FE
F800FE
F8007E
FC007E
FF007C
FFC1FC
FFFFF8
F7FFF0
E3FFE0
C0FF00
ENDCHAR

STARTCHAR T
ENCODING 84
SWIDTH 700 0
DWIDTH 27 0
BBX 27 27 4 0
BITMAP
06000380
0FFFFF80
0FFFFF80
1FFFFF80
3FFFFFC0
3F1F8FC0
7E1F87C0
7C1F83C0
F83F83C0
703F01E0
103F0000
003F0000
007F0000
007E0000
007E0000
007E0000
00FE0000
00FE0000
00FC0000
00FC0000
00FC0000
01FC0000
01FC0000
0FFF0000
1FFF0000
1FFF0000
1FFF0000
ENDCHAR

STARTCHAR U
ENCODING 85
SWIDTH 740 0
DWIDTH 28 0
BBX 28 26 6 0
BITMAP
7FF87FF0
FFF87FE0
FFF87FE0
FFF0FFE0
1F801F00
1F801E00
3F801E00
3F001E00
3F003E00
3F003C00
7F003C00
7F003C00
7E007C00
7E007C00
FE007800
FE007800
FC007800
FC00F800
FC00F000
FE01F000
FE03E000
FF07E000
7FFFC000
3FFF8000
1FFF0000
07F80000
ENDCHAR

STARTCHAR V
ENCODING 86
SWIDTH 660 0
DWIDTH 25 0
BBX 26 26 5 0
BITMAP
7FF9FFC0
7FF9FFC0
FFF1FF80
FFF1FF80
3F807E00
3F807C00
1F80FC00
1F80F800
1F81F000
1F81F000
1F83E000
1FC3E000
1FC7C000
0FC7C000
0FCF8000
0FCF8000
0FDF0000
0FDE0000
0FDE0000
0FFC0000
0FFC0000
07F80000
07F80000
07F00000
07F00000
07E00000
ENDCHAR

STARTCHAR W
ENCODING 87
SWIDTH 1000 0
DWIDTH 38 0
BBX 39 26 5 0
BITMAP
7FFBFFCFFE
7FF3FFCFFC
7FF3FF8FFC
FFF3FF9FFC
3F80FC03F0
3F80FC03E0
1F80FC07C0
1F80FC07C0
1F80FC0F80
1F81FE0F80
1F81FE1F00
1F83FE1F00
1FC3FE3E00
1FC7FE3E00
1FC7BE7C00
0FCF7E7C00
0FCE7EF800
0FDE7EF800
0FDC7FF000
0FFC7FE000
0FF83FE000
0FF83FC000
0FF03FC000
0FF03F8000
07E03F8000
07E03F0000
ENDCHAR

STARTCHAR X
ENCODING 88
SWIDTH 740 0
DWIDTH 28 0
BBX 33 26 0 0
BITMAP
01FFF3FF80
03FFE7FF00
03FFE7FF00
03FFE7FF00
007F01F800
007F01F000
003F83E000
001FC7C000
001FCF8000
000FEF0000
0007FE0000
0007FC0000
0007F80000
000FF80000
001FFC0000
003EFC0000
007CFE0000
00F87F0000
01F07F0000
03E03F8000
07C03FC000
0FC01FC000
7FF0FFF800
7FF0FFF800
7FF1FFF000
FFF1FFF000
ENDCHAR

STARTCHAR Y
ENCODING 89
SWIDTH 660 0
DWIDTH 25 0
BBX 26 26 5 0
BITMAP
7FF9FFC0
7FF9FF80
FFF3FF80
FFF3FF80
3F807E00
1F80FC00
1FC0F800
0FC1F000
0FE3E000
07E7C000
07E7C000
07F78000
03FF0000
03FE0000
01FC0000
01F80000
01F80000
01F80000
03F80000
03F80000
03F00000
03F00000
3FFE0000
3FFE0000
3FFC0000
3FFC0000
ENDCHAR

STARTCHAR Z
ENCODING 90
SWIDTH 680 0
DWIDTH 26 0
BBX 27 26 2 0
BITMAP
01FFFFE0
01FFFFE0
03FFFFE0
03FFBFE0
07F07FC0
07C0FF80
0F81FF00
1F03FE00
1E07FC00
0C07F800
000FF000
001FE000
003FC000
007F8000
00FF0000
01FE0300
03FC03C0
07F80780
0FF00F80
1FE01F00
3FE03F00
7F81FE00
FFFFFC00
FFFFFC00
FFFFF800
FFFFF800
ENDCHAR

STARTCHAR bracketleft
ENCODING 91
SWIDTH 260 0
DWIDTH 10 0
BBX 16 36 0 -9
BITMAP
00FF
01FF
01FF
01F0
01F0
01E0
03E0
03E0
03E0
03E0
07C0
07C0
07C0
07C0
0780
0F80
0F80
0F80
0F00
1F00
1F00
1F00
1F00
1E00
3E00
3E00
3E00
3C00
7C00
7C00
7C00
7C00
F800
FF80
FF00
FF00
ENDCHAR

STARTCHAR backslash
ENCODING 92
SWIDTH 580 0
DWIDTH 22 0
BBX 22 33 2 -6
BITMAP
F00000
F80000
780000
7C0000
3E0000
3E0000
1F0000
0F0000
0F8000
078000
07C000
03C000
03E000
01E000
01F000
00F800
00F800
007C00
007C00
003E00
001E00
001F00
000F00
000F80
000780
0007C0
0003C0
0003E0
0001F0
0001F0
0000F8
0000F8
00007C
ENDCHAR

STARTCHAR bracketright
ENCODING 93
SWIDTH 260 0
DWIDTH 10 0
BBX 16 36 -3 -9
BITMAP
00FF
01FF
01FF
001E
003E
003E
003E
003C
007C
007C
007C
007C
0078
00F8
00F8
00F8
00F0
01F0
01F0
01F0
01F0
03E0
03E0
03E0
03E0
03C0
07C0
07C0
07C0
07C0
0F80
0F80
0F80
FF80
FF00
FF00
ENDCHAR

STARTCHAR asciicircum
ENCODING 94
SWIDTH 620 0
DWIDTH 24 0
BBX 19 15 5 11
BITMAP
00F000
01F000
01F800
03F800
03FC00
07BC00
079E00
0F1E00
0F0F00
1E0F00
1E0780
3C0780
3C03C0
7803C0
F801E0
ENDCHAR

STARTCHAR underscore
ENCODING 95
SWIDTH 500 0
DWIDTH 19 0
BBX 19 2 0 -5
BITMAP
FFFFE0
FFFFE0
ENDCHAR

STARTCHAR quoteleft
ENCODING 96
SWIDTH 320 0
DWIDTH 12 0
BBX 10 13 6 14
BITMAP
0180
0780
0FC0
3E00
3C00
7800
F000
FE00
FF00
FF00
FF00
7E00
3E00
ENDCHAR

STARTCHAR a
ENCODING 97
SWIDTH 680 0
DWIDTH 26 0
BBX 24 19 3 0
BITMAP
00FC7C
03FF7C
0FFFFC
1FFFF8
3FC3F8
3F81F8
7F01F8
7E03F0
FE03F0
FE03F0
FC07F0
FC07E0
FC0FE0
FE1FE0
FE3FE6
7FFFFF
7FF7FF
3FE3FE
1F81F8
ENDCHAR

STARTCHAR b
ENCODING 98
SWIDTH 600 0
DWIDTH 23 0
BBX 22 28 2 0
BITMAP
007000
07F000
1FE000
3FE000
3FE000
07E000
07E000
0FC000
0FC000
0FCFE0
0FDFF0
0FBFF8
1FFFF8
1FF3F8
1FE1FC
1FC1FC
3F81FC
3F81FC
3F01FC
3F01F8
3E03F8
7E03F0
7E07F0
7F1FE0
7FFFC0
FFFF80
FBFF00
F0FC00
ENDCHAR

STARTCHAR c
ENCODING 99
SWIDTH 560 0
DWIDTH 21 0
BBX 19 19 3 0
BITMAP
007E00
03FF80
07FFE0
1FFFE0
3FC7E0
3F87E0
7F03E0
7E01C0
FE0000
FE0000
FC0000
FC0000
FC0000
FE0180
FF0FC0
7FFFC0
3FFF80
1FFE00
07F000
ENDCHAR

STARTCHAR d
ENCODING 100
SWIDTH 680 0
DWIDTH 26 0
BBX 24 27 3 0
BITMAP
000007
0000FF
0001FE
0003FE
0003FE
00007E
00007C
0000FC
00FCFC
03FF7C
0FFFFC
1FFFF8
3FC3F8
3F81F8
7F01F8
7E03F0
FE03F0
FE03F0
FC07F0
FC07E0
FC0FE0
FE1FE0
FE7FE6
7FFFFF
7FF7FF
3FE3FE
1F81F8
ENDCHAR

STARTCHAR e
ENCODING 101
SWIDTH 560 0
DWIDTH 21 0
BBX 20 19 3 0
BITMAP
001F00
01FFC0
03FFE0
0FFFF0
1FC1F0
3F81F0
3F03F0
7F1FE0
7FFFC0
FFFF00
FFF800
FE0000
FE0080
7E01C0
7F87E0
7FFFC0
3FFF80
1FFE00
07F800
ENDCHAR

STARTCHAR f
ENCODING 102
SWIDTH 420 0
DWIDTH 16 0
BBX 28 36 -4 -8
BITMAP
00001F80
00007FE0
0001FFF0
0001FFF0
0003F3F0
0003E1E0
0007E000
0007E000
0007E000
003FFC00
003FFC00
007FF800
007FF800
000FC000
001F8000
001F8000
001F8000
001F8000
001F0000
003F0000
003F0000
003F0000
003F0000
003E0000
007E0000
007E0000
007E0000
007C0000
007C0000
00FC0000
78F80000
FCF80000
FFF00000
FFE00000
7FC00000
1F000000
ENDCHAR

STARTCHAR g
ENCODING 103
SWIDTH 620 0
DWIDTH 24 0
BBX 25 27 1 -8
BITMAP
003F0F80
00FFDF00
01FFFF00
03FFFF00
07F07F00
0FE03E00
0FC07E00
1FC07E00
1F807E00
3F80FC00
3F80FC00
3F81FC00
3F81FC00
3F83FC00
1FCFF800
1FFFF800
0FFEF800
07FDF800
03F1F000
0003F000
3003F000
7C07E000
FE1FC000
FFFF8000
7FFF0000
3FFC0000
0FE00000
ENDCHAR

STARTCHAR h
ENCODING 104
SWIDTH 700 0
DWIDTH 27 0
BBX 24 28 4 0
BITMAP
007000
07E000
3FE000
3FE000
3FE000
07E000
0FC000
0FC000
0FC000
0FCFE0
0F9FF0
1FBFF8
1FFFF8
1FFBF8
1FE1F8
3FC1F8
3FC1F0
3F83F0
3F83F0
3F03F0
7F03F0
7E07E0
7E07E0
7E07E6
FC07FF
FC07FF
FC03FE
FC01F8
ENDCHAR

STARTCHAR i
ENCODING 105
SWIDTH 380 0
DWIDTH 14 0
BBX 12 27 4 0
BITMAP
01C0
03F0
07F0
07F0
07F0
03E0
01C0
0000
01E0
3FC0
7FC0
7FC0
FFC0
1F80
1F80
1F80
1F80
3F00
3F00
3F00
7E00
7E00
7E60
7FF0
7FF0
3FE0
1F80
ENDCHAR

STARTCHAR j
ENCODING 106
SWIDTH 320 0
DWIDTH 12 0
BBX 21 35 -5 -8
BITMAP
0000E0
0001F0
0003F8
0003F8
0003F8
0001F0
0000C0
000000
0000E0
000FE0
003FE0
003FE0
007FC0
000FC0
000FC0
000FC0
000F80
001F80
001F80
001F80
001F00
003F00
003F00
003F00
003F00
007E00
007E00
007E00
007E00
787C00
FCFC00
FFF800
FFF000
7FE000
1F0000
ENDCHAR

STARTCHAR k
ENCODING 107
SWIDTH 700 0
DWIDTH 27 0
BBX 24 27 4 0
BITMAP
007000
1FE000
3FE000
3FE000
3FE000
07C000
0FC000
0FC000
0FC07C
0FC1FE
1F87FF
1F8FFF
1F9E1F
1FBC04
1F7E00
3F7E00
3FFF00
3FFF00
3FBF00
7F9F80
7F1F80
7E1FC0
7E0FC6
7E0FFF
FC07FF
FC03FE
FC01F8
ENDCHAR

STARTCHAR l
ENCODING 108
SWIDTH 380 0
DWIDTH 14 0
BBX 11 28 5 0
BITMAP
00E0
1FE0
3FC0
7FC0
7FC0
0FC0
0F80
1F80
1F80
1F80
1F80
1F00
3F00
3F00
3F00
3F00
7E00
7E00
7E00
7E00
7C00
FC00
FC00
FCC0
FFE0
FFE0
7F80
3F00
ENDCHAR

STARTCHAR m
ENCODING 109
SWIDTH 960 0
DWIDTH 36 0
BBX 34 19 4 0
BITMAP
078FC1F800
7F9FE7FC00
FFFFF7FE00
FFBFFFFE00
FFF7FE7E00
1FC3FC7E00
3FC3F87E00
3F83F07C00
3F87F0FC00
3F07E0FC00
7F07E0FC00
7E07E0FC00
7E0FC0F800
7E0FC1F800
7C0FC1F980
FC0FC1FFC0
FC0F81FFC0
FC1F80FF80
FC1F807E00
ENDCHAR

STARTCHAR n
ENCODING 110
SWIDTH 680 0
DWIDTH 26 0
BBX 24 19 4 0
BITMAP
03C7E0
7FDFF0
7F9FF8
7FFFF8
FFFBF8
1FE1F8
1FC1F8
1FC1F0
1F83F0
3F83F0
3F03F0
3F03E0
3F07E0
7E07E0
7E07E6
7E07FF
7E07FF
FC03FE
FC01F8
ENDCHAR

STARTCHAR o
ENCODING 111
SWIDTH 600 0
DWIDTH 23 0
BBX 20 18 4 1
BITMAP
00FC00
07FF80
0FFFC0
1FFFE0
3F87F0
7F03F0
7E03F0
FE03F0
FC03F0
FC03F0
FC07F0
FC07E0
FC0FE0
FE1FC0
7FFF80
3FFF80
1FFE00
0FFC00
ENDCHAR

STARTCHAR p
ENCODING 112
SWIDTH 660 0
DWIDTH 25 0
BBX 27 27 -1 -8
BITMAP
003C7F00
07FDFF80
07FDFFC0
07FFFFC0
06FF9FE0
01FE0FE0
01FC0FE0
01FC0FE0
01F80FE0
03F80FE0
03F00FC0
03F01FC0
03F01F80
03E03F80
07F87F00
07FFFE00
07FFFC00
07EFF800
0FC7C000
0FC00000
0FC00000
0FC00000
1FC00000
FFF00000
FFF00000
FFF00000
FFF00000
ENDCHAR

STARTCHAR q
ENCODING 113
SWIDTH 620 0
DWIDTH 24 0
BBX 22 27 3 -8
BITMAP
00FC3C
03FF7C
07FFFC
0FFFFC
1FC0F8
3F81F8
3F81F8
7F01F8
7E03F8
FE03F0
FE03F0
FE07F0
FE0FF0
FE1FE0
7F3FE0
7FFFE0
3FFBE0
1FE7C0
0FCFC0
000FC0
000FC0
000FC0
001FC0
00FFF0
00FFF0
00FFF0
01FFE0
ENDCHAR

STARTCHAR r
ENCODING 114
SWIDTH 500 0
DWIDTH 19 0
BBX 19 19 4 0
BITMAP
03CF80
7F9FC0
7FBFE0
FFBFE0
FFFFC0
1FE3C0
3FC000
3F8000
3F8000
3F0000
3F0000
7F0000
7E0000
7E0000
7E0000
FC0000
FC0000
FC0000
FC0000
ENDCHAR

STARTCHAR s
ENCODING 115
SWIDTH 540 0
DWIDTH 21 0
BBX 20 19 2 0
BITMAP
007E00
03FFC0
07FFE0
0FFFF0
1F83F0
1F81F0
1FE000
1FFC00
0FFF00
07FFC0
01FFC0
007FE0
780FE0
FC07E0
FE07E0
7FFFC0
3FFF80
1FFE00
01F000
ENDCHAR

STARTCHAR t
ENCODING 116
SWIDTH 440 0
DWIDTH 17 0
BBX 15 25 4 0
BITMAP
01E0
01E0
03E0
03E0
07C0
0FC0
3FFE
7FFE
7FFE
FFFE
1F80
1F80
1F00
3F00
3F00
3F00
3F00
7E00
7E08
7E1C
7E3E
7FFC
3FF8
1FE0
0FC0
ENDCHAR

STARTCHAR u
ENCODING 117
SWIDTH 680 0
DWIDTH 26 0
BBX 24 19 4 0
BITMAP
00C000
07C0FC
7FC0F8
7F81F8
FF81F8
FF81F8
1F81F0
1F03F0
3F03F0
3F07F0
3F07F0
3E0FE0
7E0FE0
7E1FE0
7E3FE6
7FFFFE
7FF7FF
3FE3FC
1F81F8
ENDCHAR

STARTCHAR v
ENCODING 118
SWIDTH 540 0
DWIDTH 21 0
BBX 19 20 4 0
BITMAP
000180
03C7C0
7FC7E0
7F87E0
7F87E0
FF87E0
1F83E0
1F03E0
3F03E0
3F03C0
3F07C0
3F0780
3E0F80
7E0F00
7E1F00
7E7E00
7FFC00
7FF800
3FE000
1FC000
ENDCHAR

STARTCHAR w
ENCODING 119
SWIDTH 860 0
DWIDTH 33 0
BBX 31 20 4 0
BITMAP
00000018
03C0FC7C
7FC0F87E
7F81F87E
FF81F87E
FF81F87E
1F81F03E
1F03F03E
3F03F03E
3F03F03C
3F07F03C
3F07E07C
3E0FE078
7E1FE0F8
7E1FE1F0
7E7FE7E0
7FFBFFC0
7FF3FF80
3FE3FF00
1F81FC00
ENDCHAR

STARTCHAR x
ENCODING 120
SWIDTH 620 0
DWIDTH 24 0
BBX 26 20 0 0
BITMAP
00000700
00701F80
03F83F80
03F87F80
07FCFF80
07FCFF00
00FDE000
007FC000
007FC000
003F8000
007F0000
007F8000
00FF8000
01EFC000
03EFE000
7FC7E300
7F87FFC0
FF03FF80
7E01FF00
7800FC00
ENDCHAR

STARTCHAR y
ENCODING 121
SWIDTH 600 0
DWIDTH 23 0
BBX 25 27 0 -8
BITMAP
00380000
01F81F80
0FF83F00
0FF03F00
1FF03F00
03F03E00
03F07E00
03E07E00
07E07E00
07E0FE00
07E0FC00
07C1FC00
0FC1FC00
0FC3FC00
0FC7F800
0FFFF800
0FFEF800
07FDF800
03F1F000
0003F000
3803F000
7C07E000
FE1FC000
7FFF8000
7FFF0000
3FFE0000
07F00000
ENDCHAR

STARTCHAR z
ENCODING 122
SWIDTH 560 0
DWIDTH 21 0
BBX 21 19 2 0
BITMAP
03F808
0FFFF8
1FFFF8
1FFFF0
3F0FF0
3F1FE0
1E3FC0
0C7F80
00FF00
01FC00
07F800
0FF0E0
1FE1F0
3FC1F0
7F83F0
7FFFF0
FFFFE0
FFFFC0
007F00
ENDCHAR

STARTCHAR braceleft
ENCODING 123
SWIDTH 300 0
DWIDTH 11 0
BBX 15 33 1 -7
BITMAP
003E
0070
00E0
01C0
03C0
03C0
03C0
03C0
03C0
07C0
0780
0780
0700
0F00
1C00
1800
E000
3800
1C00
1C00
1E00
1E00
3E00
3C00
7C00
7C00
F800
F800
F000
F000
7000
3800
1E00
ENDCHAR

STARTCHAR bar
ENCODING 124
SWIDTH 620 0
DWIDTH 24 0
BBX 5 36 12 -8
BITMAP
F8
F8
F8
F8
F8
F8
F8
F8
F8
F8
F8
F8
F8
F8
F8
F8
F8
F8
F8
F8
F8
F8
F8
F8
F8
F8
F8
F8
F8
F8
F8
F8
F8
F8
F8
F8
ENDCHAR

STARTCHAR braceright
ENCODING 125
SWIDTH 300 0
DWIDTH 11 0
BBX 15 33 -1 -7
BITMAP
00F8
003C
001C
001E
001E
003E
003E
007C
007C
0078
00F8
00F0
00F0
0070
0030
001E
000C
0038
00E0
01C0
03C0
03C0
03C0
07C0
07C0
0780
0780
0780
0780
0700
0E00
1C00
F000
ENDCHAR

STARTCHAR asciitilde
ENCODING 126
SWIDTH 620 0
DWIDTH 24 0
BBX 19 7 5 9
BITMAP
0F0040
1FC0C0
3FF1E0
7FFFE0
F0FFC0
603F80
200F00
ENDCHAR

STARTCHAR space
ENCODING 160
SWIDTH 340 0
DWIDTH 16 0
BBX 0 0 0 0
BITMAP
ENDCHAR

STARTCHAR Aogonek
ENCODING 161
SWIDTH 720 0
DWIDTH 27 0
BBX 28 33 0 -7
BITMAP
0000FC00
0001FC00
0001FC00
0003FE00
0007FE00
0007FE00
000FBE00
001F7E00
001F7E00
003E3F00
003E3F00
007C3F00
00F83F00
00F83F00
01FFFF00
03FFFF80
03FFFF80
07C01F80
07C01F80
0F801F80
1F801FC0
1F001FC0
FFE0FFF0
FFE0FFE0
FFE1FFE0
FFC1FBE0
00000700
00000E00
00001E00
00001E00
00001FC0
00000FC0
00000780
ENDCHAR

STARTCHAR afii240
ENCODING 162
SWIDTH 500 0
DWIDTH 19 0
BBX 22 17 -2 0
BITMAP
0FFBFC
03F0E0
03E0C0
03E100
03E200
03C600
07DE00
07BE00
07BF00
0FDF00
0F9F00
0F9F00
0F0F80
1F0F80
1F0F80
3F1FC0
FFBFF0
ENDCHAR

STARTCHAR Rcommaaccent
ENCODING 163
SWIDTH 740 0
DWIDTH 28 0
BBX 29 36 1 -10
BITMAP
03FFFF00
03FFFFC0
07FFFFF0
07FFFFF0
00FC07F8
00FC03F8
00FC03F8
01FC03F8
01F803F8
01F807F0
01F81FE0
03FFFFE0
03FFFF80
03FFFF00
03FFF800
03F3F800
07F1FC00
07E0FE00
07E0FE00
07E07F00
0FE07F80
0FE03F80
7FFC3FF0
7FF81FF0
FFF81FF0
FFF80FF0
00000000
00000000
001C0000
003E0000
003E0000
003E0000
000E0000
001C0000
00780000
00200000
ENDCHAR

STARTCHAR currency
ENCODING 164
SWIDTH 680 0
DWIDTH 26 0
BBX 20 20 6 3
BITMAP
200040
70F0E0
FBFEF0
7FFFE0
1FFF80
3F07C0
3C03C0
7C01E0
7801E0
7801E0
7801E0
7801E0
3C03E0
3C03C0
1F0F80
3FFFC0
7FFFE0
FBFEF0
70F0E0
200040
ENDCHAR

STARTCHAR Itilde
ENCODING 165
SWIDTH 380 0
DWIDTH 14 0
BBX 19 33 1 0
BITMAP
00F840
01FFE0
03FFE0
018F80
000000
000000
000000
03FFC0
07FFC0
07FFC0
07FFC0
00FC00
00FC00
01FC00
01FC00
01F800
01F800
01F800
03F800
03F000
03F000
03F000
07F000
07F000
07E000
07E000
07E000
0FC000
0FE000
7FF800
FFF800
FFF800
FFF800
ENDCHAR

STARTCHAR Lcommaaccent
ENCODING 166
SWIDTH 640 0
DWIDTH 24 0
BBX 27 36 0 -10
BITMAP
03FFC000
03FFC000
07FFC000
07FFC000
00FE0000
00FC0000
00FC0000
01FC0000
01F80000
01F80000
01F80000
03F80000
03F80000
03F00000
03F00000
03F00080
07F001E0
07E001E0
07E003C0
07E007C0
0FE00F80
0FE07F80
7FFFFF80
7FFFFF00
FFFFFF00
FFFFFE00
00000000
00000000
00380000
007C0000
007C0000
007C0000
001C0000
00380000
00F00000
00400000
ENDCHAR

STARTCHAR section
ENCODING 167
SWIDTH 620 0
DWIDTH 24 0
BBX 24 33 2 -7
BITMAP
001FE0
007FF8
01FFFE
03FFFF
03F07F
07E03F
07E01F
07F01F
03FC00
03FF80
01FFF0
01FFF8
07FFFC
0FCFFE
0F81FE
1F807E
1F803E
1FF03E
0FFE7C
0FFFF8
07FFF0
01FFE0
007FF0
000FF8
7803F8
FC01F8
FC01F8
FE01F8
FF07F0
7FFFE0
3FFFC0
0FFF80
03FC00
ENDCHAR

STARTCHAR hungarumlaut
ENCODING 168
SWIDTH 560 0
DWIDTH 21 0
BBX 16 8 8 21
BITMAP
0606
1F1F
1F1F
3F3F
7E7E
7C7C
F8F8
6060
ENDCHAR

STARTCHAR Scaron
ENCODING 169
SWIDTH 700 0
DWIDTH 27 0
BBX 24 34 4 0
BITMAP
006070
00F9F0
007FF0
003FC0
000F00
000400
000000
000000
00FF0E
03FFCE
0FFFFE
0FFFFF
1F81FF
3F007F
3F003F
3F001F
3F800F
3FF00C
1FFE00
0FFFC0
07FFF0
03FFF8
007FFC
F00FFE
F001FE
F800FE
F8007E
FC007E
FF007C
FFC1FC
FFFFF8
F7FFF0
E3FFE0
C0FF00
ENDCHAR

STARTCHAR Emacron
ENCODING 170
SWIDTH 720 0
DWIDTH 27 0
BBX 29 32 1 0
BITMAP
000FFFC0
000FFF80
001FFF80
00000000
00000000
00000000
03FFFFE0
03FFFFE0
07FFFFF0
07FFFFF0
00FC03F0
00FC00F8
00FC0078
00FC3C78
01FC3820
01F87800
01F8F800
01FFF800
03FFF000
03FFF000
03F1F000
03F0F040
07F0F070
07F0E0F0
07E001F0
07E003E0
07E007E0
0FE01FC0
7FFFFFC0
7FFFFF80
7FFFFF80
FFFFFF00
ENDCHAR

STARTCHAR Gcommaaccent
ENCODING 171
SWIDTH 760 0
DWIDTH 29 0
BBX 28 36 4 -10
BITMAP
001FC380
007FFB80
01FFFF80
07FFFF80
0FF81F80
1FE00FC0
3FC007C0
3F8007C0
7F8003C0
7F000200
7F000000
FF000000
FE00FFF0
FE01FFF0
FE01FFF0
FE01FFF0
FE003F80
FF003F00
7F003F00
7F803F00
3F807F00
3FE0FE00
1FFFFE00
0FFFFE00
07FFDE00
01FF3C00
00000000
00000000
00380000
007C0000
007C0000
007C0000
001C0000
00380000
00F00000
00400000
ENDCHAR

STARTCHAR afii237
ENCODING 172
SWIDTH 611 0
DWIDTH 23 0
BBX 23 25 3 0
BITMAP
1FFFFE
1FFFFE
3C3F1E
303E0C
207E04
607E04
407C04
00FC00
00FC00
00F800
01F800
FFFFF0
01F000
01F000
03F000
03F000
03E000
07E000
07E000
07C000
0FC000
0FC000
0FC000
1FC000
FFF800
ENDCHAR

STARTCHAR hyphen
ENCODING 173
SWIDTH 280 0
DWIDTH 11 0
BBX 9 4 3 7
BITMAP
7F80
FF80
FF80
FF00
ENDCHAR

STARTCHAR Zcaron
ENCODING 174
SWIDTH 680 0
DWIDTH 26 0
BBX 27 35 2 0
BITMAP
00040100
000F0F00
000FFF00
0007FE00
0001F800
0000E000
00000000
00000000
00000000
01FFFFE0
01FFFFE0
03FFFFE0
03FFBFE0
07F07FC0
07C0FF80
0F81FF00
1F03FE00
1E07FC00
0C07F800
000FF000
001FE000
003FC000
007F8000
00FF0000
01FE0300
03FC03C0
07F80780
0FF00F80
1FE01F00
3FE03F00
7F81FE00
FFFFFC00
FFFFFC00
FFFFF800
FFFFF800
ENDCHAR

STARTCHAR macron
ENCODING 175
SWIDTH 480 0
DWIDTH 18 0
BBX 14 3 7 23
BITMAP
7FFC
FFFC
FFF8
ENDCHAR

STARTCHAR degree
ENCODING 176
SWIDTH 400 0
DWIDTH 15 0
BBX 10 9 8 17
BITMAP
3F00
7F80
E1C0
C0C0
C0C0
E0C0
E3C0
7F80
1F00
ENDCHAR

STARTCHAR aogonek
ENCODING 177
SWIDTH 680 0
DWIDTH 26 0
BBX 24 26 3 -7
BITMAP
00FC7C
03FF7C
0FFFF8
1FFFF8
3FC3F8
3F81F8
7F01F0
7E03F0
FE03F0
FC07F0
FC07F0
FC0FE0
FC0FE0
FE1FE0
FE7FE6
7FFFFF
7FF7FF
3FE3FC
1FC1F8
000380
000700
000F00
000F00
000FE0
0007E0
0003C0
ENDCHAR

STARTCHAR ogonek
ENCODING 178
SWIDTH 320 0
DWIDTH 12 0
BBX 7 7 0 -7
BITMAP
1C
70
70
F0
FE
7E
3C
ENDCHAR

STARTCHAR rcommaaccent
ENCODING 179
SWIDTH 500 0
DWIDTH 19 0
BBX 18 29 4 -10
BITMAP
03CF80
7F9FC0
FFBFC0
FFBFC0
FFFFC0
1FE380
3FC000
3F8000
3F8000
3F0000
7F0000
7E0000
7E0000
7E0000
7E0000
FC0000
FC0000
FC0000
FC0000
000000
000000
1C0000
3E0000
3E0000
3E0000
0E0000
1C0000
780000
200000
ENDCHAR

STARTCHAR acute
ENCODING 180
SWIDTH 340 0
DWIDTH 13 0
BBX 8 8 9 21
BITMAP
06
1F
1F
3F
7E
FC
F0
40
ENDCHAR

STARTCHAR itilde
ENCODING 181
SWIDTH 380 0
DWIDTH 14 0
BBX 15 27 4 -1
BITMAP
0F8C
1FFE
3FFC
30F8
1000
0000
0000
01E0
3FC0
7FC0
7FC0
FF80
1F80
1F80
1F80
3F00
3F00
3F00
3F00
7E00
7E00
7E40
7FE0
7FF0
7FE0
3FC0
0600
ENDCHAR

STARTCHAR lcommaaccent
ENCODING 182
SWIDTH 380 0
DWIDTH 14 0
BBX 11 37 5 -9
BITMAP
0060
07E0
3FC0
7FC0
7FC0
7FC0
0FC0
0F80
1F80
1F80
1F80
1F00
3F00
3F00
3F00
3F00
3E00
7E00
7E00
7E00
7C00
FC00
FC00
FCC0
FFE0
FFE0
7F80
1E00
0000
3800
7C00
7C00
7C00
1C00
3800
F000
4000
ENDCHAR

STARTCHAR caron
ENCODING 183
SWIDTH 480 0
DWIDTH 18 0
BBX 13 6 7 22
BITMAP
2010
F8F0
7FF8
3FE0
0FC0
0700
ENDCHAR

STARTCHAR commaaccent
ENCODING 184
SWIDTH 333 0
DWIDTH 13 0
BBX 6 8 3 -10
BITMAP
38
7C
7C
7C
1C
38
F0
40
ENDCHAR

STARTCHAR scaron
ENCODING 185
SWIDTH 540 0
DWIDTH 21 0
BBX 21 29 2 0
BITMAP
002010
007070
00FEF8
003FF0
001FC0
000700
000200
000000
000000
003C00
03FFC0
07FFE0
0FFFF0
1F87F0
1F81F0
1FC0E0
1FF000
0FFE00
0FFF80
03FFC0
01FFE0
003FE0
780FE0
FC07E0
FE07C0
7FFFC0
3FFF80
1FFE00
01F000
ENDCHAR

STARTCHAR emacron
ENCODING 186
SWIDTH 560 0
DWIDTH 21 0
BBX 22 26 3 0
BITMAP
007FFC
00FFFC
00FFF8
000000
000000
000000
000000
003F80
01FFC0
07FFE0
0FFFF0
1FC1F0
3F81F0
3F03F0
7F1FE0
7FFFC0
FFFF00
FFF800
FE0000
FE0080
7E01C0
7F87E0
7FFFC0
3FFF80
1FFE00
07F800
ENDCHAR

STARTCHAR gcommaaccent
ENCODING 187
SWIDTH 620 0
DWIDTH 24 0
BBX 25 38 1 -8
BITMAP
00002000
0000F000
0001C000
00030000
0003E000
0003E000
0003E000
0001C000
00000000
00000000
00000000
003F8F80
00FFEF80
01FFFF00
03FFFF00
07F87F00
0FE03F00
0FE03F00
1FC07E00
1FC07E00
3F807E00
3F80FE00
3F80FC00
3F81FC00
3F83FC00
1FCFFC00
1FFFF800
0FFEF800
07FDF800
03F1F800
0003F000
3003F000
7C07E000
FE1FE000
FFFFC000
7FFF0000
3FFE0000
0FF00000
ENDCHAR

STARTCHAR afii253
ENCODING 188
SWIDTH 278 0
DWIDTH 11 0
BBX 11 22 1 0
BITMAP
0040
00C0
01C0
0380
0F80
3FE0
6FE0
1F00
1F00
1E00
3E00
FFC0
3E00
3C00
7C00
7C00
7800
7880
F900
FA00
FC00
7800
ENDCHAR

STARTCHAR afii238
ENCODING 189
SWIDTH 775 0
DWIDTH 29 0
BBX 30 26 -1 0
BITMAP
03FF07C0
007E1FE0
007E70F0
007EC078
007D807C
007F007C
00FE007C
00FC007C
00F800FC
00F800FC
01F800FC
01F800FC
01F001FC
03F001F8
03F001F8
03E001F8
03E003F0
07E003F0
07E003E0
07C007E0
0FC1C7C0
0FC3E780
0F83E700
1F83CE00
1FC3CC00
FFF1F000
ENDCHAR

STARTCHAR zcaron
ENCODING 190
SWIDTH 560 0
DWIDTH 21 0
BBX 21 28 2 0
BITMAP
002010
007878
007FF8
003FF0
000FC0
000700
000000
000000
000000
03F808
0FFFF8
1FFFF8
1FFFF0
3F0FF0
3F1FE0
1E3FC0
0C7F80
00FF00
01FC00
07F800
0FF0E0
1FE1F0
3FC1F0
7F83F0
7FFFF0
FFFFE0
FFFFC0
007F00
ENDCHAR

STARTCHAR afii254
ENCODING 191
SWIDTH 477 0
DWIDTH 18 0
BBX 19 25 -1 -8
BITMAP
3FC3C0
0FC7E0
0F8FE0
0F93E0
0FA3C0
0F47C0
1F47C0
1F87C0
1F0F80
3F0F80
3E0F80
3E0F00
3C1F00
7C1F00
7C1E00
783E00
F83E00
003C00
007C00
007800
007800
0C7000
1EF000
1CE000
0F8000
ENDCHAR

STARTCHAR Amacron
ENCODING 192
SWIDTH 720 0
DWIDTH 27 0
BBX 28 32 0 0
BITMAP
0003FFF0
0003FFE0
0007FFE0
00000000
00000000
00000000
0000FE00
0000FE00
0001FE00
0003FE00
0003FE00
0007FE00
0007BF00
000FBF00
001F3F00
001F3F00
003E3F00
007C3F00
007C3F80
00F81F80
00FFFF80
01FFFF80
03FFFF80
03E01F80
07C01FC0
0FC01FC0
0F800FC0
1F801FC0
7FF0FFF0
7FE0FFF0
FFE0FFF0
FFE0FFE0
ENDCHAR

STARTCHAR Aacute
ENCODING 193
SWIDTH 720 0
DWIDTH 27 0
BBX 28 35 0 0
BITMAP
00000F80
00001F80
00001F80
00003F00
00007E00
0000F800
00007000
00000000
00000000
0000FE00
0000FE00
0001FE00
0003FE00
0003FE00
0007FE00
0007BF00
000FBF00
001F3F00
001F3F00
003E3F00
007C3F00
007C3F80
00F81F80
00FFFF80
01FFFF80
03FFFF80
03E01F80
07C01FC0
0FC01FC0
0F800FC0
1F801FC0
7FF0FFF0
7FE0FFF0
FFE0FFF0
FFE0FFE0
ENDCHAR

STARTCHAR Acircumflex
ENCODING 194
SWIDTH 720 0
DWIDTH 27 0
BBX 28 35 0 0
BITMAP
00000400
00001E00
00007F00
0001FF80
0003FFE0
0001C1C0
00010040
00000000
00000000
0000FE00
0000FE00
0001FE00
0003FE00
0003FE00
0007FE00
0007BF00
000FBF00
001F3F00
001F3F00
003E3F00
007C3F00
007C3F80
00F81F80
00FFFF80
01FFFF80
03FFFF80
03E01F80
07C01FC0
0FC01FC0
0F800FC0
1F801FC0
7FF0FFF0
7FE0FFF0
FFE0FFF0
FFE0FFE0
ENDCHAR

STARTCHAR Atilde
ENCODING 195
SWIDTH 720 0
DWIDTH 27 0
BBX 28 33 0 0
BITMAP
0000F840
0001FFE0
0003FFC0
00030F80
00000000
00000000
00000000
0000FE00
0000FE00
0001FE00
0003FE00
0003FE00
0007FE00
0007BF00
000FBF00
001F3F00
001F3F00
003E3F00
007C3F00
007C3F80
00F81F80
00FFFF80
01FFFF80
03FFFF80
03E01F80
07C01FC0
0FC01FC0
0F801FC0
1F801FC0
7FF0FFF0
7FE0FFF0
FFE0FFF0
FFE0FFE0
ENDCHAR

STARTCHAR Adieresis
ENCODING 196
SWIDTH 720 0
DWIDTH 27 0
BBX 27 35 1 0
BITMAP
0001C1C0
0003E3E0
0007E7E0
0007E7E0
0007C7C0
00038380
00000000
00000000
00000000
0000FC00
0001FC00
0001FC00
0003FC00
0007FE00
0007FE00
000FBE00
000F7E00
001F7E00
003E3E00
003E3E00
007C3F00
00F83F00
00F83F00
01FFFF00
01FFFF00
03FFFF00
07C01F80
07C01F80
0F801F80
1F801F80
1F001F80
FFE0FFE0
FFE0FFE0
FFE1FFE0
FFC1FFE0
ENDCHAR

STARTCHAR Aring
ENCODING 197
SWIDTH 720 0
DWIDTH 27 0
BBX 29 36 0 0
BITMAP
00001E00
00003F00
00007380
00006180
00006180
00007380
00003F00
00001E00
00000000
00000000
00007E00
0000FE00
0001FE00
0001FE00
0003FF00
0003FF00
0007DF00
000FBF00
000F3F00
001F3F00
003E3F80
003E1F80
007C1F80
00F81F80
00FFFF80
01FFFF80
01FFFFC0
03E01FC0
07E00FC0
07C00FC0
0F800FC0
1F800FE0
7FF0FFF8
7FE0FFF0
7FE0FFF0
FFE0FFF0
ENDCHAR

STARTCHAR AE
ENCODING 198
SWIDTH 1140 0
DWIDTH 43 0
BBX 46 26 0 0
BITMAP
000FFFFFFFF0
000FFFFFFFF0
000FFFFFFFF8
000FFFFFFFF8
0001F07E01F8
0003E07E007C
0007C0FE003C
0007C0FC1E3C
000F80FC1C10
001F80FC3C00
001F00FC7C00
003E01FFFC00
007FFFFFF800
007FFFFFF800
00FFFFF8F800
01FFFFF87820
01F003F87038
03F003F07078
07E003F000F0
07E003F001F0
0FC007E003E0
1F8007F00FE0
7FF03FFFFFE0
7FF07FFFFFC0
FFF07FFFFFC0
FFF07FFFFF80
ENDCHAR

STARTCHAR Iogonek
ENCODING 199
SWIDTH 380 0
DWIDTH 14 0
BBX 18 33 1 -7
BITMAP
07FFC0
07FFC0
07FFC0
07FF80
00FC00
00FC00
01FC00
01F800
01F800
01F800
03F800
03F000
03F000
03F000
07F000
07F000
07E000
07E000
07E000
0FE000
0FC000
0FC000
FFF800
FFF800
FFF800
F7F000
0E0000
1C0000
3C0000
3C0000
3F8000
1F8000
0F0000
ENDCHAR

STARTCHAR Ccaron
ENCODING 200
SWIDTH 700 0
DWIDTH 27 0
BBX 25 35 4 0
BITMAP
00080200
001E0E00
001FBE00
000FFC00
0003F800
0001E000
00004000
00000000
00000000
001FC380
00FFF780
01FFFF80
07FFFF80
0FF83F80
1FE00F80
3FC00F80
3F800780
7F800780
7F000780
7F000000
FE000000
FE000000
FE000000
FE000000
FE000000
FE000000
FE000400
7F000E00
7F801F00
3F803E00
3FE1FC00
1FFFF800
0FFFF000
03FFC000
00FF0000
ENDCHAR

STARTCHAR Eacute
ENCODING 201
SWIDTH 720 0
DWIDTH 27 0
BBX 29 36 1 0
BITMAP
00000300
00000780
00000FC0
00001FC0
00003F80
00003F00
00007C00
00003000
00000000
00000000
03FFFFE0
03FFFFE0
07FFFFF0
07FFFFF0
00FC03F0
00FC00F8
00FC0078
00FC3C78
01FC3820
01F87800
01F8F800
01FFF800
03FFF000
03FFF000
03F1F000
03F0F040
07F0F070
07F0E0F0
07E001F0
07E003E0
07E007E0
0FE01FC0
7FFFFFC0
7FFFFF80
7FFFFF80
FFFFFF00
ENDCHAR

STARTCHAR Eogonek
ENCODING 202
SWIDTH 720 0
DWIDTH 27 0
BBX 29 33 1 -7
BITMAP
03FFFFE0
03FFFFF0
03FFFFF0
03FFFFF0
00FE03F0
00FC00F8
00FC0078
00FC3C38
00FC3C20
01FC3800
01F8F800
01FFF800
01FFF800
03FFF000
03F8F000
03F0F040
03F0F078
03F0F0F0
07F001F0
07E003E0
07E007E0
0FE01FC0
7FFFFFC0
7FFFFF80
7FFFFF80
FFFFFF00
00001800
00007000
0000F000
0000F000
0000FE00
00007E00
00003C00
ENDCHAR

STARTCHAR Edieresis
ENCODING 203
SWIDTH 720 0
DWIDTH 27 0
BBX 29 35 1 0
BITMAP
00038380
0007C7C0
000FCFC0
000FCFC0
000F8F80
00070700
00000000
00000000
00000000
03FFFFE0
03FFFFE0
03FFFFE0
07FFFFF0
00FE03F0
00FC00F0
00FC0078
00FC3C78
01FC3820
01FC7800
01F8F800
01FFF800
01FFF000
03FFF000
03F1F000
03F0F040
03F0F0F0
07F0E0F0
07F001E0
07E003E0
07E007C0
0FE01FC0
7FFFFF80
7FFFFF80
7FFFFF00
FFFFFF00
ENDCHAR

STARTCHAR Edotaccent
ENCODING 204
SWIDTH 720 0
DWIDTH 27 0
BBX 29 34 1 0
BITMAP
00003800
00007C00
0000FC00
0000FC00
0000F800
00007000
00000000
00000000
03FFFFE0
03FFFFE0
03FFFFF0
07FFFFF0
00FC03F0
00FC00F8
00FC0078
00FC3C78
01FC3820
01F87800
01F8F800
01FFF800
03FFF000
03FFF000
03F1F000
03F0F040
03F0F070
07F0E0F0
07E001F0
07E003E0
07E007E0
0FE01FC0
7FFFFFC0
7FFFFF80
7FFFFF80
FFFFFF00
ENDCHAR

STARTCHAR Iacute
ENCODING 205
SWIDTH 380 0
DWIDTH 14 0
BBX 18 35 1 0
BITMAP
000F00
001F80
001F80
003F00
007E00
00F800
007000
000000
000000
03FFC0
07FFC0
07FFC0
07FFC0
00FC00
00FC00
01FC00
01FC00
01F800
01F800
01F800
03F800
03F000
03F000
03F000
07F000
07F000
07E000
07E000
07E000
0FC000
0FE000
7FF800
FFF800
FFF800
FFF800
ENDCHAR

STARTCHAR Icircumflex
ENCODING 206
SWIDTH 380 0
DWIDTH 14 0
BBX 20 35 1 0
BITMAP
000200
000E00
003F80
00FFC0
01FFF0
00E1E0
008020
000000
000000
03FFC0
07FFC0
07FFC0
07FFC0
00FC00
00FC00
01FC00
01FC00
01F800
01F800
01F800
03F800
03F000
03F000
03F000
07F000
07F000
07E000
07E000
07E000
0FC000
0FE000
7FF800
FFF800
FFF800
FFF800
ENDCHAR

STARTCHAR Imacron
ENCODING 207
SWIDTH 380 0
DWIDTH 14 0
BBX 20 32 1 0
BITMAP
01FFF0
03FFF0
03FFE0
000000
000000
000000
03FFC0
07FFC0
07FFC0
07FFC0
00FC00
00FC00
01FC00
01FC00
01F800
01F800
01F800
03F800
03F000
03F000
03F000
07F000
07F000
07E000
07E000
07E000
0FC000
0FE000
7FF800
FFF800
FFF800
FFF800
ENDCHAR

STARTCHAR Eth
ENCODING 208
SWIDTH 760 0
DWIDTH 29 0
BBX 30 26 1 0
BITMAP
03FFFE00
03FFFF80
07FFFFE0
07FFFFE0
00FC0FF0
00FC07F8
00FC03F8
01FC01FC
01F801FC
01F801FC
01F801FC
03F801FC
1FFFC1FC
1FFFC1FC
1FFF81FC
03F003F8
07F003F8
07E007F8
07E007F0
07E00FE0
0FE01FE0
0FE07FC0
7FFFFF80
7FFFFE00
FFFFF800
FFFFC000
ENDCHAR

STARTCHAR Ncommaaccent
ENCODING 209
SWIDTH 740 0
DWIDTH 28 0
BBX 32 36 2 -10
BITMAP
07FF07FF
07FF07FE
07FF07FE
07FF8FFE
00FF81F0
01FF81E0
01FFC1E0
01EFC3E0
01EFC3E0
01EFC3C0
03E7E3C0
03C7E3C0
03C7E7C0
03C3F7C0
07C3F780
07C3F780
0783FF80
0781FF80
0F81FF00
0F81FF00
0F00FF00
0F00FF00
FFE0FE00
FFE07E00
FFE07E00
FFC07E00
00000000
00000000
001C0000
003E0000
003E0000
003E0000
000E0000
001C0000
00780000
00200000
ENDCHAR

STARTCHAR Omacron
ENCODING 210
SWIDTH 760 0
DWIDTH 29 0
BBX 27 32 4 0
BITMAP
001FFF00
001FFF00
003FFE00
00000000
00000000
00000000
001FE000
00FFF800
03FFFE00
07FFFF00
0FF07F80
1FE01FC0
3FC01FC0
3F800FC0
7F800FE0
7F000FE0
7F000FE0
FE000FE0
FE000FE0
FE000FE0
FE001FE0
FE001FC0
FE001FC0
FE003FC0
7E003F80
7F007F80
3F80FF00
3FC1FE00
1FFFFC00
0FFFF000
03FFE000
007F0000
ENDCHAR

STARTCHAR Kcommaaccent
ENCODING 211
SWIDTH 780 0
DWIDTH 30 0
BBX 33 36 1 -10
BITMAP
03FFE7FF80
03FFCFFF80
03FFCFFF00
07FFCFFF00
00FE03F800
00FC07F000
00FC0FE000
00FC1F8000
01FC3F0000
01FCFE0000
01F9F80000
01FBF80000
01FFFC0000
03FFFC0000
03FF7E0000
03FE7F0000
03F87F0000
07F03F8000
07E03F8000
07E01FC000
07E01FC000
0FE00FE000
7FFC7FFC00
7FF87FF800
7FF87FF800
FFF8FFF800
0000000000
0000000000
000E000000
001F000000
001F000000
001F000000
0007000000
000E000000
003C000000
0010000000
ENDCHAR

STARTCHAR Ocircumflex
ENCODING 212
SWIDTH 760 0
DWIDTH 29 0
BBX 27 34 4 0
BITMAP
0000C000
0003E000
000FF800
003FFE00
001E3C00
00180C00
00000000
00000000
001FE000
00FFF800
01FFFE00
07FFFF00
0FF07F80
1FE01FC0
3FC01FC0
3F800FC0
7F800FE0
7F000FE0
7F000FE0
FE000FE0
FE000FE0
FE000FE0
FE001FE0
FE001FC0
FE001FC0
FE003FC0
7E003F80
7F007F80
3F80FF00
3FC1FE00
1FFFFC00
0FFFF000
03FFE000
007F0000
ENDCHAR

STARTCHAR Otilde
ENCODING 213
SWIDTH 760 0
DWIDTH 29 0
BBX 27 33 4 0
BITMAP
000F8400
001FFE00
003FFC00
0038F800
00100000
00000000
00000000
001FE000
00FFF800
01FFFE00
07FFFF00
0FF07F80
1FE01FC0
3FC01FC0
3F800FC0
7F800FE0
7F000FE0
7F000FE0
FE000FE0
FE000FE0
FE000FE0
FE001FE0
FE001FC0
FE001FC0
FE003FC0
7E003F80
7F007F80
3F80FF00
3FC1FE00
1FFFFC00
0FFFF000
03FFE000
007F0000
ENDCHAR

STARTCHAR Odieresis
ENCODING 214
SWIDTH 760 0
DWIDTH 29 0
BBX 27 34 4 0
BITMAP
000E0E00
001F1F00
003F3F00
003F3F00
003E3E00
001C1C00
00000000
00000000
001FE000
007FF800
01FFFE00
07FFFF00
0FF83F80
1FE01FC0
1FC01FC0
3F800FC0
7F800FE0
7F000FE0
7F000FE0
FF000FE0
FE000FE0
FE000FE0
FE000FE0
FE001FC0
FE001FC0
FE001FC0
7F003F80
7F003F80
3F807F00
3FC1FE00
1FFFFC00
07FFF800
03FFE000
007F0000
ENDCHAR

STARTCHAR multiply
ENCODING 215
SWIDTH 600 0
DWIDTH 23 0
BBX 17 18 6 4
BITMAP
200200
600600
F00F00
F81F80
7C3F00
3E7E00
1F7C00
0FF800
03F000
07E000
0FF000
1FF800
3F7C00
7E3E00
FC1F00
F80F80
700700
200200
ENDCHAR

STARTCHAR Oslash
ENCODING 216
SWIDTH 760 0
DWIDTH 29 0
BBX 33 26 1 0
BITMAP
0003FC0100
001FFF0780
003FFFCF00
00FFFFFE00
01FE0FFC00
03FC07F000
07F803F800
07F003F800
0FF00FFC00
0FE01FFC00
0FE03DFC00
1FE0F9FC00
1FC1E1FC00
1FC3C1FC00
1FC783FC00
1FDE03F800
1FFC03F800
1FF807F800
0FE007F000
0FE00FF000
07F01FE000
1FF83FC000
3FFFFF8000
79FFFF0000
F07FFC0000
400FE00000
ENDCHAR

STARTCHAR Uogonek
ENCODING 217
SWIDTH 740 0
DWIDTH 28 0
BBX 28 33 6 -7
BITMAP
7FF87FF0
FFF87FE0
FFF8FFE0
FFF0FFE0
1F801F00
1F801E00
3F801E00
3F003E00
3F003E00
3F003C00
7F003C00
7F007C00
7E007C00
7E007800
FE007800
FE007800
FC00F800
FC00F000
FC00F000
FE01F000
FE03E000
FF8FE000
7FFFC000
3FFF8000
1FFE0000
07F80000
01C00000
03800000
07800000
07800000
07F00000
03F00000
01E00000
ENDCHAR

STARTCHAR Uacute
ENCODING 218
SWIDTH 740 0
DWIDTH 28 0
BBX 28 35 6 0
BITMAP
0000F000
0001F800
0003F800
0003F000
0007E000
000F8000
00060000
00000000
00000000
7FF87FF0
FFF87FE0
FFF87FE0
FFF0FFE0
1F801F00
1F801E00
3F801E00
3F001E00
3F003E00
3F003C00
7F003C00
7F003C00
7E007C00
7E007C00
FE007800
FE007800
FC007800
FC00F800
FC00F000
FE01F000
FE03E000
FF07E000
7FFFC000
3FFF8000
1FFF0000
07F80000
ENDCHAR

STARTCHAR Ucircumflex
ENCODING 219
SWIDTH 740 0
DWIDTH 28 0
BBX 28 35 6 0
BITMAP
00004000
0001C000
0007F000
001FF800
003FFE00
001C3C00
00100400
00000000
00000000
7FF87FF0
FFF87FE0
FFF87FE0
FFF0FFE0
1F801F00
1F801E00
3F801E00
3F001E00
3F003E00
3F003C00
7F003C00
7F003C00
7E007C00
7E007C00
FE007800
FE007800
FC007800
FC00F800
FC00F000
FE01F000
FE03E000
FF07E000
7FFFC000
3FFF8000
1FFF0000
07F80000
ENDCHAR

STARTCHAR Udieresis
ENCODING 220
SWIDTH 740 0
DWIDTH 28 0
BBX 27 35 6 0
BITMAP
001C1C00
003E3E00
007E7E00
007E7E00
007C7C00
00383800
00000000
00000000
00000000
7FF87FE0
FFF8FFE0
FFF0FFE0
FFF0FFC0
1F801E00
1F803E00
3F003E00
3F003C00
3F003C00
3F003C00
7F007C00
7E007800
7E007800
7E007800
FE00F800
FE00F000
FC00F000
FC00F000
FC01F000
FC01E000
FE03E000
FF0FC000
7FFFC000
3FFF0000
1FFE0000
07F80000
ENDCHAR

STARTCHAR Utilde
ENCODING 221
SWIDTH 740 0
DWIDTH 28 0
BBX 28 33 6 0
BITMAP
000F8C00
001FFE00
003FFC00
0030F800
00000000
00000000
00000000
7FF87FF0
FFF87FE0
FFF87FE0
FFF0FFE0
1F801F00
1F801E00
3F801E00
3F001E00
3F003E00
3F003C00
7F003C00
7F003C00
7E007C00
7E007C00
FE007800
FE007800
FC007800
FC00F800
FC00F000
FE01F000
FE03E000
FF07E000
7FFFC000
3FFF8000
1FFF0000
07F80000
ENDCHAR

STARTCHAR Umacron
ENCODING 222
SWIDTH 740 0
DWIDTH 28 0
BBX 28 32 6 0
BITMAP
007FFE00
007FFC00
00FFFC00
00000000
00000000
00000000
7FF87FF0
FFF87FE0
FFF87FE0
FFF0FFE0
1F801F00
1F801E00
3F801E00
3F001E00
3F003E00
3F003C00
7F003C00
7F003C00
7E007C00
7E007C00
FE007800
FE007800
FC007800
FC00F800
FC00F000
FE01F000
FE03E000
FF07E000
7FFFC000
3FFF8000
1FFF0000
07F80000
ENDCHAR

STARTCHAR germandbls
ENCODING 223
SWIDTH 660 0
DWIDTH 25 0
BBX 31 36 -4 -8
BITMAP
00001FC0
00007FF8
0000FFFC
0001FFFE
0003F87E
0007F07E
0007E03E
0007E07E
0007C7FE
007FCFFC
007FCFC0
007FDF00
006FDF80
001F9F80
001F9FC0
001F8FE0
001F8FF0
001F07F8
003F03FC
003F01FC
003F00FC
003E707C
003EF87C
007EFCFC
007EFFF8
007EFFF0
007C7FE0
00FC1F80
00FC0000
00F80000
F0F80000
F9F80000
FFF00000
FFE00000
7FC00000
3E000000
ENDCHAR

STARTCHAR amacron
ENCODING 224
SWIDTH 680 0
DWIDTH 26 0
BBX 24 26 3 0
BITMAP
001FFF
003FFF
003FFE
000000
000000
000000
000000
00FC7C
03FF7C
0FFFFC
1FFFF8
3FC3F8
3F81F8
7F01F8
7E03F0
FE03F0
FE03F0
FC07F0
FC07E0
FC0FE0
FE1FE0
FE3FE6
7FFFFF
7FF7FF
3FE3FC
1F81F8
ENDCHAR

STARTCHAR aacute
ENCODING 225
SWIDTH 680 0
DWIDTH 26 0
BBX 24 29 3 0
BITMAP
000060
0001F0
0003F0
0003F0
0007E0
000FC0
000F00
000400
000000
000000
00FC7C
03FF7C
0FFFFC
1FFFF8
3FC3F8
3F81F8
7F01F8
7E03F0
FE03F0
FE03F0
FC07F0
FC07E0
FC0FE0
FE1FE0
FE3FE6
7FFFFF
7FF7FF
3FE3FC
1F81F8
ENDCHAR

STARTCHAR acircumflex
ENCODING 226
SWIDTH 680 0
DWIDTH 26 0
BBX 24 28 3 0
BITMAP
000080
0003E0
000FF0
003FFE
003F7C
00181C
000000
000000
000000
00FC7C
03FF7C
0FFFFC
1FFFF8
3FC3F8
3F81F8
7F01F8
7E03F0
FE03F0
FE03F0
FC07F0
FC07E0
FC0FE0
FE1FE0
FE3FE6
7FFFFF
7FF7FF
3FE3FC
1F81F8
ENDCHAR

STARTCHAR atilde
ENCODING 227
SWIDTH 680 0
DWIDTH 26 0
BBX 24 26 3 0
BITMAP
000F8C
001FFE
003FFC
0030F8
001000
000000
000000
00FC7C
03FF7C
0FFFFC
1FFFF8
3FC3F8
3F81F8
7F01F8
7E03F0
FE03F0
FE03F0
FC07F0
FC07E0
FC0FE0
FE1FE0
FE3FE6
7FFFFF
7FF7FF
3FE3FC
1F81F8
ENDCHAR

STARTCHAR adieresis
ENCODING 228
SWIDTH 680 0
DWIDTH 26 0
BBX 24 28 4 0
BITMAP
001C1C
003E3E
007E7E
007E7E
007C7C
003838
000000
000000
000000
00FC7C
03FE78
0FFFF8
1FFFF8
3FC3F8
3F81F0
7F03F0
7E03F0
FE03F0
FC07E0
FC07E0
FC0FE0
FC0FE0
FE1FE0
FE7FEC
7FFFFF
7FF7FE
3FE3FC
1F81F0
ENDCHAR

STARTCHAR aring
ENCODING 229
SWIDTH 680 0
DWIDTH 26 0
BBX 24 30 4 0
BITMAP
0003C0
0007E0
000E70
000C30
000C30
000E70
0007E0
0003C0
000000
000000
000000
00FC7C
03FE78
0FFFF8
1FFFF8
3F83F8
3F01F0
7F03F0
7E03F0
FE03F0
FC07F0
FC07E0
FC0FE0
FC0FE0
FC1FE0
FE7FE6
7FFFFF
7FF7FE
3FE3FC
1F81F0
ENDCHAR

STARTCHAR ae
ENCODING 230
SWIDTH 880 0
DWIDTH 33 0
BBX 32 19 3 0
BITMAP
007E01F0
03FF8FFC
0FFFFFFE
1FFFFFFF
1F83FE1F
1F03F81F
1F03F83F
0C03F07E
01FFFFFC
0FFFFFF8
3FF7FFC0
7F07E000
FC0FE000
FC0FE01C
FE3FF07E
FFFFFFFE
7FF9FFF8
3FE0FFE0
1F807F80
ENDCHAR

STARTCHAR iogonek
ENCODING 231
SWIDTH 380 0
DWIDTH 14 0
BBX 12 34 4 -7
BITMAP
01C0
03F0
07F0
07F0
07F0
03E0
01C0
0000
01E0
3FC0
7FC0
7FC0
EFC0
1F80
1F80
1F80
1F80
3F00
3F00
3F00
3F00
7E00
7E60
7FF0
7FF0
3FE0
0F80
1C00
3800
7800
7800
7F00
3F00
1E00
ENDCHAR

STARTCHAR ccaron
ENCODING 232
SWIDTH 560 0
DWIDTH 21 0
BBX 20 28 3 0
BITMAP
004020
00F0F0
00FFF0
003FE0
001F80
000E00
000000
000000
000000
007E00
03FF80
07FFC0
1FFFE0
3FC7E0
3F87E0
7F03E0
7E01C0
FE0000
FE0000
FC0000
FC0000
FC0000
FE0180
FF0FC0
7FFFC0
3FFF80
1FFE00
07F000
ENDCHAR

STARTCHAR eacute
ENCODING 233
SWIDTH 560 0
DWIDTH 21 0
BBX 20 29 3 0
BITMAP
000080
0003C0
0007E0
000FE0
000FC0
001F80
003E00
001800
000000
000000
001F00
01FFC0
03FFE0
0FFFF0
1FC1F0
3F81F0
3F03F0
7F1FE0
7FFFC0
FFFF00
FFF800
FE0000
FE0080
7E01C0
7F07E0
7FFFC0
3FFF80
1FFE00
07F800
ENDCHAR

STARTCHAR eogonek
ENCODING 234
SWIDTH 560 0
DWIDTH 21 0
BBX 19 26 4 -7
BITMAP
003E00
01FF80
07FFC0
0FFFE0
1FC3E0
3F83E0
7F07E0
7E3FC0
FFFF80
FFFF00
FFF800
FC0000
FC0100
FE0380
FF0FC0
7FFF80
3FFF00
1FFC00
0FF000
01C000
038000
078000
078000
07F000
03F000
01E000
ENDCHAR

STARTCHAR edieresis
ENCODING 235
SWIDTH 560 0
DWIDTH 21 0
BBX 22 28 3 0
BITMAP
007038
00F87C
01F8FC
01F8FC
01F0F8
00E070
000000
000000
000000
003F00
01FFC0
07FFE0
0FFFF0
1FC1F0
3F81F0
7F03F0
7E1FE0
7FFFC0
FFFF00
FFF800
FE0000
FE0080
7E01C0
7F0FE0
7FFFC0
3FFF80
1FFE00
07F800
ENDCHAR

STARTCHAR edotaccent
ENCODING 236
SWIDTH 560 0
DWIDTH 21 0
BBX 20 27 3 0
BITMAP
000700
000F80
001F80
001F80
001F00
000E00
000000
000000
001F00
01FFC0
03FFE0
0FFFF0
1FC1F0
3F81F0
3F03F0
7F1FE0
7FFFC0
FFFF00
FFF800
FE0000
FE0080
7E01C0
7F87E0
7FFFC0
3FFF80
1FFE00
07F800
ENDCHAR

STARTCHAR iacute
ENCODING 237
SWIDTH 380 0
DWIDTH 14 0
BBX 16 30 4 -1
BITMAP
000C
001E
003F
007F
00FE
00FC
01F0
00C0
0000
0000
01E0
1FC0
7FC0
7FC0
FF80
1F80
1F80
1F80
3F00
3F00
3F00
3F00
7E00
7E00
7E40
7FE0
7FF0
7FE0
3FC0
0600
ENDCHAR

STARTCHAR icircumflex
ENCODING 238
SWIDTH 380 0
DWIDTH 14 0
BBX 15 29 4 -1
BITMAP
0040
01E0
07F8
1FFC
1F3E
1C0C
0000
0000
0000
01E0
1FC0
7FC0
7FC0
FF80
1F80
1F80
1F80
3F00
3F00
3F00
3F00
7E00
7E00
7E40
7FE0
7FF0
7FE0
3FC0
0600
ENDCHAR

STARTCHAR imacron
ENCODING 239
SWIDTH 380 0
DWIDTH 14 0
BBX 18 26 4 -1
BITMAP
07FFC0
0FFFC0
0FFF80
000000
000000
000000
01E000
1FC000
7FC000
7FC000
FF8000
1F8000
1F8000
1F8000
3F0000
3F0000
3F0000
3F0000
7E0000
7E0000
7E4000
7FE000
7FF000
7FE000
3FC000
060000
ENDCHAR

STARTCHAR dcroat
ENCODING 240
SWIDTH 680 0
DWIDTH 26 0
BBX 27 27 3 0
BITMAP
00000700
0000FF00
0001FF00
0001FF00
00003E00
001FFFE0
001FFFE0
00007E00
00FC7C00
03FF7C00
07FFFC00
0FFFFC00
1FE1FC00
3F81F800
3F01F800
7F01F800
7F03F800
7E03F000
FE03F000
FE07F000
FE0FF000
FE1FE000
7F3FE200
7FFFFF80
3FFBFF00
3FE3FE00
0FC1F800
ENDCHAR

STARTCHAR ncommaaccent
ENCODING 241
SWIDTH 680 0
DWIDTH 26 0
BBX 24 29 4 -10
BITMAP
03C7E0
7FDFF0
7F9FF8
7FFFF8
7FF9F8
1FE1F8
1FE1F8
1FC1F0
1F83F0
3F83F0
3F03F0
3F03E0
3F03E0
3F07E0
7E07E6
7E07FF
7E07FF
7E03FE
FC01F8
000000
000000
00E000
01F000
01F000
01F000
007000
00E000
03C000
010000
ENDCHAR

STARTCHAR omacron
ENCODING 242
SWIDTH 600 0
DWIDTH 23 0
BBX 21 26 4 0
BITMAP
00FFF8
01FFF0
01FFF0
000000
000000
000000
000000
01FE00
07FF80
0FFFC0
1FFFE0
3F87E0
7F03F0
7E03F0
FE03F0
FE03F0
FC03F0
FC07F0
FC07F0
FC07E0
FC0FE0
7E1FC0
7FFF80
3FFF00
1FFC00
03F000
ENDCHAR

STARTCHAR kcommaaccent
ENCODING 243
SWIDTH 700 0
DWIDTH 27 0
BBX 24 37 4 -10
BITMAP
01F000
3FE000
3FE000
3FE000
37E000
0FC000
0FC000
0FC000
0FC07C
0F83FE
1F87FF
1F8FFF
1F9E1E
1FBC04
3F7E00
3F7E00
3FFE00
3FFF00
3FBF00
7F3F80
7F1F80
7E1FC0
7E0FC6
FC0FFF
FC07FF
FC07FE
FC01F8
000000
000000
01C000
03E000
03E000
03E000
00E000
01C000
078000
020000
ENDCHAR

STARTCHAR ocircumflex
ENCODING 244
SWIDTH 600 0
DWIDTH 23 0
BBX 20 28 4 0
BITMAP
000800
001E00
007F00
03FFC0
01F7E0
01C1C0
000000
000000
000000
00FC00
07FF80
0FFFC0
1FFFE0
3F87E0
7F03F0
7E03F0
FE03F0
FE03F0
FC03F0
FC07F0
FC07F0
FC07E0
FC0FE0
7E1FC0
7FFF80
3FFF00
1FFC00
03F000
ENDCHAR

STARTCHAR otilde
ENCODING 245
SWIDTH 600 0
DWIDTH 23 0
BBX 21 26 4 0
BITMAP
003E30
007FF8
00FFF0
00C3E0
000000
000000
000000
00FC00
07FF80
0FFFC0
1FFFE0
3F87E0
7F03F0
7E03F0
FE03F0
FE03F0
FC03F0
FC07F0
FC07F0
FC07E0
FC0FE0
7E1FC0
7FFF80
3FFF00
1FFC00
03F000
ENDCHAR

STARTCHAR odieresis
ENCODING 246
SWIDTH 600 0
DWIDTH 23 0
BBX 20 28 4 0
BITMAP
00E0E0
01F1F0
03F3F0
03F3F0
03E3E0
01C1C0
000000
000000
000000
00FC00
07FF80
0FFFC0
1FFFE0
3F87E0
7F03F0
7E03F0
FE03F0
FE03F0
FC03F0
FC07F0
FC07F0
FC0FE0
FC0FE0
7E1FC0
7FFF80
3FFF00
1FFC00
03F000
ENDCHAR

STARTCHAR divide
ENCODING 247
SWIDTH 600 0
DWIDTH 23 0
BBX 19 17 5 4
BITMAP
00E000
01F000
01F000
01F000
00E000
000000
000000
FFFFE0
FFFFE0
FFFFE0
000000
000000
00E000
01F000
01F000
01F000
00E000
ENDCHAR

STARTCHAR oslash
ENCODING 248
SWIDTH 600 0
DWIDTH 23 0
BBX 24 18 2 1
BITMAP
003F02
01FFEF
03FFFE
07FFFC
0FE0FC
1FC1FC
1F83FC
3F8FFC
3F9EFC
3F78FC
3FF1FC
3FE1F8
3F03F8
3F87F0
1FFFE0
7FFFE0
F7FF80
63FF00
ENDCHAR

STARTCHAR uogonek
ENCODING 249
SWIDTH 680 0
DWIDTH 26 0
BBX 24 26 4 -7
BITMAP
00C000
07C0FC
7F81F8
7F81F8
FF81F8
FF81F8
1F83F0
1F03F0
3F03F0
3F07F0
3F07F0
3E0FE0
7E0FE0
7E1FE0
7E3FE4
7FFFFE
7FF7FF
3FE3FC
1F81F8
000380
000700
000F00
000F00
000FE0
0007E0
0003C0
ENDCHAR

STARTCHAR uacute
ENCODING 250
SWIDTH 680 0
DWIDTH 26 0
BBX 24 28 4 0
BITMAP
000078
0000F8
0001F8
0003F8
0003E0
0007C0
000300
000000
000000
00C000
07C0FC
7FC0F8
7F81F8
FF81F8
1F81F8
1F83F0
1F03F0
3F03F0
3F07F0
3F07F0
3E0FE0
7E0FE0
7E1FE0
7F7FE6
7FFBFF
7FF7FF
3FE3FC
1F81F0
ENDCHAR

STARTCHAR ucircumflex
ENCODING 251
SWIDTH 680 0
DWIDTH 26 0
BBX 24 28 4 0
BITMAP
000100
000780
001FC0
00FFF0
007DF8
007070
002010
000000
000000
00C000
07C0FC
7FC0F8
7F81F8
FF81F8
1F81F8
1F83F0
1F03F0
3F03F0
3F07F0
3F07F0
3E0FE0
7E0FE0
7E1FE0
7F7FE6
7FFBFF
7FF7FF
3FE3FC
1F81F0
ENDCHAR

STARTCHAR udieresis
ENCODING 252
SWIDTH 680 0
DWIDTH 26 0
BBX 24 28 3 0
BITMAP
003838
007C7C
00FCFC
00FCFC
00F8F8
007070
000000
000000
000000
00C000
07C0FC
7FC0F8
7FC1F8
FF81F8
1F81F8
1F81F8
1F83F0
3F03F0
3F03F0
3F07F0
3F07E0
7E0FE0
7E1FE0
7F7FE6
7FFBFF
7FF7FF
3FE3FC
1F81F0
ENDCHAR

STARTCHAR utilde
ENCODING 253
SWIDTH 680 0
DWIDTH 26 0
BBX 24 26 4 0
BITMAP
003E38
00FFF0
01FFF0
0083C0
000000
000000
000000
03C0FC
7FC0FC
7F81F8
FF81F8
FF81F8
1F81F8
1F83F0
3F03F0
3F03F0
3F07F0
3F07E0
3E0FE0
7E1FE0
7E1FE0
7F7FE6
7FFBFF
7FF7FF
3FE3FC
1F81F0
ENDCHAR

STARTCHAR umacron
ENCODING 254
SWIDTH 680 0
DWIDTH 26 0
BBX 24 25 4 0
BITMAP
003FFE
007FFC
007FFC
000000
000000
000000
00C000
07C0FC
7FC0F8
7F81F8
FF81F8
1F81F8
1F83F0
1F03F0
3F03F0
3F07F0
3F07F0
3E0FE0
7E0FE0
7E1FE0
7F7FE6
7FFBFF
7FF7FF
3FE3FC
1F81F0
ENDCHAR

STARTCHAR dotaccent
ENCODING 255
SWIDTH 380 0
DWIDTH 14 0
BBX 6 6 8 21
BITMAP
38
7C
FC
FC
F8
70
ENDCHAR
ENDFONT
